<?xml version="1.0" encoding="utf-8"?>
<!-- Generator: Adobe Illustrator 24.1.1, SVG Export Plug-In . SVG Version: 6.00 Build 0)  -->
<svg version="1.1" id="Layer_1" xmlns="http://www.w3.org/2000/svg" xmlns:xlink="http://www.w3.org/1999/xlink" x="0px" y="0px"
	 viewBox="0 0 327.9 104.6" style="enable-background:new 0 0 327.9 104.6;" xml:space="preserve">
<style type="text/css">
	.st0{fill:url(#SVGID_1_);}
	.st1{fill:url(#SVGID_2_);}
	.st2{fill:url(#SVGID_3_);}
	.st3{fill:url(#SVGID_4_);}
	.st4{fill:url(#SVGID_5_);}
	.st5{fill:url(#SVGID_6_);}
	.st6{fill:url(#SVGID_7_);}
	.st7{fill:url(#SVGID_8_);}
	.st8{fill:url(#SVGID_9_);}
	.st9{fill:url(#SVGID_10_);}
	.st10{fill:#FFFFFF;}
</style>
<g>
	<g>
		<linearGradient id="SVGID_1_" gradientUnits="userSpaceOnUse" x1="16.3204" y1="18.8522" x2="64.7498" y2="90.6517">
			<stop  offset="0.6257" style="stop-color:#008ECC"/>
			<stop  offset="0.6737" style="stop-color:#1698D5"/>
			<stop  offset="0.7732" style="stop-color:#3EAAE5"/>
			<stop  offset="0.8642" style="stop-color:#5BB7F1"/>
			<stop  offset="0.9428" style="stop-color:#6DBFF8"/>
			<stop  offset="1" style="stop-color:#73C2FB"/>
		</linearGradient>
		<path class="st0" d="M47.1,79.9l7.4,13.8c5.9-3.6,11.6-7.4,17.2-11.4l-23.2-4.3C47,77.8,46.4,78.7,47.1,79.9z"/>
		<linearGradient id="SVGID_2_" gradientUnits="userSpaceOnUse" x1="-5.9401" y1="33.8671" x2="42.4893" y2="105.6666">
			<stop  offset="0.6257" style="stop-color:#008ECC"/>
			<stop  offset="0.6737" style="stop-color:#1698D5"/>
			<stop  offset="0.7732" style="stop-color:#3EAAE5"/>
			<stop  offset="0.8642" style="stop-color:#5BB7F1"/>
			<stop  offset="0.9428" style="stop-color:#6DBFF8"/>
			<stop  offset="1" style="stop-color:#73C2FB"/>
		</linearGradient>
		<path class="st1" d="M38.9,76.3c-0.3-0.1-1.4,0.6-2.6,1.4l-16.1,12c-1.6,12.2,8.5,19.1,22.1,11.1c2.6-1.4,5.2-2.9,7.7-4.4
			l-9.4-17.7C39.9,77.5,39.1,76.4,38.9,76.3z"/>
		<linearGradient id="SVGID_3_" gradientUnits="userSpaceOnUse" x1="50.7802" y1="-4.3911" x2="99.2095" y2="67.4083">
			<stop  offset="0.6257" style="stop-color:#008ECC"/>
			<stop  offset="0.6737" style="stop-color:#1698D5"/>
			<stop  offset="0.7732" style="stop-color:#3EAAE5"/>
			<stop  offset="0.8642" style="stop-color:#5BB7F1"/>
			<stop  offset="0.9428" style="stop-color:#6DBFF8"/>
			<stop  offset="1" style="stop-color:#73C2FB"/>
		</linearGradient>
		<path class="st2" d="M84.8,41.7l-9.5,7c-1.1,0.8-1.3,2.4-0.2,3.4L91.1,68c10-7.4,11.3-17.5,4.8-25.9l-6.4-1.4
			C88,40.4,86,40.9,84.8,41.7z"/>
		<linearGradient id="SVGID_4_" gradientUnits="userSpaceOnUse" x1="26.1573" y1="12.2172" x2="74.5866" y2="84.0167">
			<stop  offset="0.6257" style="stop-color:#008ECC"/>
			<stop  offset="0.6737" style="stop-color:#1698D5"/>
			<stop  offset="0.7732" style="stop-color:#3EAAE5"/>
			<stop  offset="0.8642" style="stop-color:#5BB7F1"/>
			<stop  offset="0.9428" style="stop-color:#6DBFF8"/>
			<stop  offset="1" style="stop-color:#73C2FB"/>
		</linearGradient>
		<path class="st3" d="M70.9,55.2c-1-1-2.8-1.1-3.9-0.3L46.1,70.5c-1.1,0.8-0.9,1.8,0.5,2l30.9,5.7c3.2-2.3,6.3-4.7,9.4-7.1
			L70.9,55.2z"/>
		<linearGradient id="SVGID_5_" gradientUnits="userSpaceOnUse" x1="43.7768" y1="0.3327" x2="92.2061" y2="72.1321">
			<stop  offset="0.6257" style="stop-color:#008ECC"/>
			<stop  offset="0.6737" style="stop-color:#1698D5"/>
			<stop  offset="0.7732" style="stop-color:#3EAAE5"/>
			<stop  offset="0.8642" style="stop-color:#5BB7F1"/>
			<stop  offset="0.9428" style="stop-color:#6DBFF8"/>
			<stop  offset="1" style="stop-color:#73C2FB"/>
		</linearGradient>
		<path class="st4" d="M77.7,38.2l-18.5-4c-1.4-0.3-1.7,0.3-0.7,1.3l9.3,9.3c1,1,2.8,1.1,3.9,0.3l6.4-4.8
			C79.3,39.4,79.1,38.5,77.7,38.2z"/>
		<linearGradient id="SVGID_6_" gradientUnits="userSpaceOnUse" x1="24.5377" y1="13.3096" x2="72.967" y2="85.1091">
			<stop  offset="0.6257" style="stop-color:#008ECC"/>
			<stop  offset="0.6737" style="stop-color:#1698D5"/>
			<stop  offset="0.7732" style="stop-color:#3EAAE5"/>
			<stop  offset="0.8642" style="stop-color:#5BB7F1"/>
			<stop  offset="0.9428" style="stop-color:#6DBFF8"/>
			<stop  offset="1" style="stop-color:#73C2FB"/>
		</linearGradient>
		<path class="st5" d="M41.3,25.5L21.8,6.1c-2.4,4-2.5,10,0.6,16.8l18.1,3.9C42,27.1,42.3,26.5,41.3,25.5z"/>
		<linearGradient id="SVGID_7_" gradientUnits="userSpaceOnUse" x1="3.6608" y1="27.3913" x2="52.0902" y2="99.1907">
			<stop  offset="0.6257" style="stop-color:#008ECC"/>
			<stop  offset="0.6737" style="stop-color:#1698D5"/>
			<stop  offset="0.7732" style="stop-color:#3EAAE5"/>
			<stop  offset="0.8642" style="stop-color:#5BB7F1"/>
			<stop  offset="0.9428" style="stop-color:#6DBFF8"/>
			<stop  offset="1" style="stop-color:#73C2FB"/>
		</linearGradient>
		<path class="st6" d="M35,68.3l-8.5-15.9c0,5.4-0.4,10.9-1.1,16.2l8.3,1.5C35.1,70.4,35.7,69.6,35,68.3z"/>
		<linearGradient id="SVGID_8_" gradientUnits="userSpaceOnUse" x1="43.9325" y1="0.2277" x2="92.3618" y2="72.0272">
			<stop  offset="0.6257" style="stop-color:#008ECC"/>
			<stop  offset="0.6737" style="stop-color:#1698D5"/>
			<stop  offset="0.7732" style="stop-color:#3EAAE5"/>
			<stop  offset="0.8642" style="stop-color:#5BB7F1"/>
			<stop  offset="0.9428" style="stop-color:#6DBFF8"/>
			<stop  offset="1" style="stop-color:#73C2FB"/>
		</linearGradient>
		<path class="st7" d="M54.9,29.9l26.2,5.7c1.4,0.3,3.5-0.1,4.6-1l0.9-0.7C72.4,23,58.1,13.1,42.3,4.4c-6.8-4-12.8-4.2-16.8-2
			l25.1,25.1C51.6,28.6,53.6,29.6,54.9,29.9z"/>
		<linearGradient id="SVGID_9_" gradientUnits="userSpaceOnUse" x1="-4.3377" y1="32.7863" x2="44.0916" y2="104.5858">
			<stop  offset="0.6257" style="stop-color:#008ECC"/>
			<stop  offset="0.6737" style="stop-color:#1698D5"/>
			<stop  offset="0.7732" style="stop-color:#3EAAE5"/>
			<stop  offset="0.8642" style="stop-color:#5BB7F1"/>
			<stop  offset="0.9428" style="stop-color:#6DBFF8"/>
			<stop  offset="1" style="stop-color:#73C2FB"/>
		</linearGradient>
		<path class="st8" d="M28.9,74.5l-4.3-0.8c-0.5,2.6-1.1,5.2-1.8,7.8l6.6-4.9C30.5,75.7,30.3,74.8,28.9,74.5z"/>
		<linearGradient id="SVGID_10_" gradientUnits="userSpaceOnUse" x1="22.9589" y1="14.3746" x2="71.3882" y2="86.174">
			<stop  offset="0.6257" style="stop-color:#008ECC"/>
			<stop  offset="0.6737" style="stop-color:#1698D5"/>
			<stop  offset="0.7732" style="stop-color:#3EAAE5"/>
			<stop  offset="0.8642" style="stop-color:#5BB7F1"/>
			<stop  offset="0.9428" style="stop-color:#6DBFF8"/>
			<stop  offset="1" style="stop-color:#73C2FB"/>
		</linearGradient>
		<path class="st9" d="M39.5,65.8c0.7,1.3,2.1,1.6,3.3,0.7l20.5-15.3c1.1-0.8,1.3-2.4,0.2-3.4L49.1,33.4c-1-1-3-2.1-4.4-2.4
			l-21.4-4.6c1.1,4.4,1.9,9,2.4,13.6L39.5,65.8z"/>
	</g>
	<g>
		<path class="st10" d="M172.9,30.8c3.3,1.5,5.8,3.6,7.6,6.3c1.8,2.7,2.7,5.9,2.7,9.6c0,3.7-0.9,6.9-2.7,9.6
			c-1.8,2.7-4.3,4.8-7.6,6.3c-3.3,1.5-7.1,2.2-11.5,2.2h-8.5v12.8h-13.9v-49h22.4C165.7,28.6,169.6,29.3,172.9,30.8z M166.9,52
			c1.4-1.2,2.2-3,2.2-5.3c0-2.3-0.7-4.1-2.2-5.3c-1.4-1.3-3.6-1.9-6.4-1.9h-7.7v14.3h7.7C163.3,53.8,165.5,53.2,166.9,52z"/>
		<path class="st10" d="M189.8,28.6h13.9v49h-13.9V28.6z"/>
		<path class="st10" d="M246.4,68.1h-20.7l-3.8,9.5h-14.1l21.6-49h13.6l21.7,49h-14.4L246.4,68.1z M242.3,57.8L236,42.2l-6.3,15.7
			H242.3z"/>
		<path class="st10" d="M282.4,39.3v10.8H304v10.7h-21.6v16.8h-13.9v-49H307v10.7H282.4z"/>
	</g>
</g>
</svg>
