<?xml version="1.0" encoding="utf-8"?>
<!-- Generator: Adobe Illustrator 24.1.1, SVG Export Plug-In . SVG Version: 6.00 Build 0)  -->
<svg version="1.1" id="Layer_1" xmlns="http://www.w3.org/2000/svg" xmlns:xlink="http://www.w3.org/1999/xlink" x="0px" y="0px"
	 viewBox="0 0 80.9 104.6" style="enable-background:new 0 0 80.9 104.6;" xml:space="preserve">
<style type="text/css">
	.st0{fill:url(#SVGID_1_);}
	.st1{fill:url(#SVGID_2_);}
	.st2{fill:url(#SVGID_3_);}
	.st3{fill:url(#SVGID_4_);}
	.st4{fill:url(#SVGID_5_);}
	.st5{fill:url(#SVGID_6_);}
	.st6{fill:url(#SVGID_7_);}
	.st7{fill:url(#SVGID_8_);}
	.st8{fill:url(#SVGID_9_);}
	.st9{fill:url(#SVGID_10_);}
</style>
<g>
	<linearGradient id="SVGID_1_" gradientUnits="userSpaceOnUse" x1="-3.108" y1="18.7162" x2="45.3214" y2="90.5157">
		<stop  offset="0.6257" style="stop-color:#008ECC"/>
		<stop  offset="0.6737" style="stop-color:#1698D5"/>
		<stop  offset="0.7732" style="stop-color:#3EAAE5"/>
		<stop  offset="0.8642" style="stop-color:#5BB7F1"/>
		<stop  offset="0.9428" style="stop-color:#6DBFF8"/>
		<stop  offset="1" style="stop-color:#73C2FB"/>
	</linearGradient>
	<path class="st0" d="M27.6,79.8L35,93.6c5.9-3.6,11.6-7.4,17.2-11.4L29,78C27.6,77.7,27,78.5,27.6,79.8z"/>
	<linearGradient id="SVGID_2_" gradientUnits="userSpaceOnUse" x1="-25.3685" y1="33.7311" x2="23.0608" y2="105.5306">
		<stop  offset="0.6257" style="stop-color:#008ECC"/>
		<stop  offset="0.6737" style="stop-color:#1698D5"/>
		<stop  offset="0.7732" style="stop-color:#3EAAE5"/>
		<stop  offset="0.8642" style="stop-color:#5BB7F1"/>
		<stop  offset="0.9428" style="stop-color:#6DBFF8"/>
		<stop  offset="1" style="stop-color:#73C2FB"/>
	</linearGradient>
	<path class="st1" d="M19.4,76.2c-0.3-0.1-1.4,0.6-2.6,1.4l-16.1,12c-1.6,12.2,8.5,19.1,22.1,11.1c2.6-1.4,5.2-2.9,7.7-4.4
		l-9.4-17.7C20.5,77.3,19.7,76.3,19.4,76.2z"/>
	<linearGradient id="SVGID_3_" gradientUnits="userSpaceOnUse" x1="31.3517" y1="-4.5272" x2="79.7811" y2="67.2723">
		<stop  offset="0.6257" style="stop-color:#008ECC"/>
		<stop  offset="0.6737" style="stop-color:#1698D5"/>
		<stop  offset="0.7732" style="stop-color:#3EAAE5"/>
		<stop  offset="0.8642" style="stop-color:#5BB7F1"/>
		<stop  offset="0.9428" style="stop-color:#6DBFF8"/>
		<stop  offset="1" style="stop-color:#73C2FB"/>
	</linearGradient>
	<path class="st2" d="M65.4,41.6l-9.5,7c-1.1,0.8-1.3,2.4-0.2,3.4l15.9,15.9c10-7.4,11.3-17.5,4.8-25.9L70,40.6
		C68.6,40.3,66.6,40.7,65.4,41.6z"/>
	<linearGradient id="SVGID_4_" gradientUnits="userSpaceOnUse" x1="6.7288" y1="12.0812" x2="55.1582" y2="83.8806">
		<stop  offset="0.6257" style="stop-color:#008ECC"/>
		<stop  offset="0.6737" style="stop-color:#1698D5"/>
		<stop  offset="0.7732" style="stop-color:#3EAAE5"/>
		<stop  offset="0.8642" style="stop-color:#5BB7F1"/>
		<stop  offset="0.9428" style="stop-color:#6DBFF8"/>
		<stop  offset="1" style="stop-color:#73C2FB"/>
	</linearGradient>
	<path class="st3" d="M51.5,55.1c-1-1-2.8-1.1-3.9-0.3L26.7,70.4c-1.1,0.8-0.9,1.8,0.5,2L58,78.1c3.2-2.3,6.3-4.7,9.4-7.1L51.5,55.1
		z"/>
	<linearGradient id="SVGID_5_" gradientUnits="userSpaceOnUse" x1="24.3484" y1="0.1967" x2="72.7777" y2="71.9961">
		<stop  offset="0.6257" style="stop-color:#008ECC"/>
		<stop  offset="0.6737" style="stop-color:#1698D5"/>
		<stop  offset="0.7732" style="stop-color:#3EAAE5"/>
		<stop  offset="0.8642" style="stop-color:#5BB7F1"/>
		<stop  offset="0.9428" style="stop-color:#6DBFF8"/>
		<stop  offset="1" style="stop-color:#73C2FB"/>
	</linearGradient>
	<path class="st4" d="M58.3,38l-18.5-4c-1.4-0.3-1.7,0.3-0.7,1.3l9.3,9.3c1,1,2.8,1.1,3.9,0.3l6.4-4.8C59.8,39.3,59.6,38.3,58.3,38z
		"/>
	<linearGradient id="SVGID_6_" gradientUnits="userSpaceOnUse" x1="5.1093" y1="13.1736" x2="53.5386" y2="84.973">
		<stop  offset="0.6257" style="stop-color:#008ECC"/>
		<stop  offset="0.6737" style="stop-color:#1698D5"/>
		<stop  offset="0.7732" style="stop-color:#3EAAE5"/>
		<stop  offset="0.8642" style="stop-color:#5BB7F1"/>
		<stop  offset="0.9428" style="stop-color:#6DBFF8"/>
		<stop  offset="1" style="stop-color:#73C2FB"/>
	</linearGradient>
	<path class="st5" d="M21.8,25.4L2.4,5.9C0,9.9-0.2,15.9,3,22.7l18.1,3.9C22.5,27,22.8,26.4,21.8,25.4z"/>
	<linearGradient id="SVGID_7_" gradientUnits="userSpaceOnUse" x1="-15.7676" y1="27.2552" x2="32.6617" y2="99.0547">
		<stop  offset="0.6257" style="stop-color:#008ECC"/>
		<stop  offset="0.6737" style="stop-color:#1698D5"/>
		<stop  offset="0.7732" style="stop-color:#3EAAE5"/>
		<stop  offset="0.8642" style="stop-color:#5BB7F1"/>
		<stop  offset="0.9428" style="stop-color:#6DBFF8"/>
		<stop  offset="1" style="stop-color:#73C2FB"/>
	</linearGradient>
	<path class="st6" d="M15.6,68.2L7.1,52.2c0,5.4-0.4,10.9-1.1,16.2l8.3,1.5C15.7,70.3,16.3,69.4,15.6,68.2z"/>
	<linearGradient id="SVGID_8_" gradientUnits="userSpaceOnUse" x1="24.504" y1="9.167662e-02" x2="72.9334" y2="71.8911">
		<stop  offset="0.6257" style="stop-color:#008ECC"/>
		<stop  offset="0.6737" style="stop-color:#1698D5"/>
		<stop  offset="0.7732" style="stop-color:#3EAAE5"/>
		<stop  offset="0.8642" style="stop-color:#5BB7F1"/>
		<stop  offset="0.9428" style="stop-color:#6DBFF8"/>
		<stop  offset="1" style="stop-color:#73C2FB"/>
	</linearGradient>
	<path class="st7" d="M35.5,29.8l26.2,5.7c1.4,0.3,3.5-0.1,4.6-1l0.9-0.7C52.9,22.9,38.7,13,22.9,4.3C16,0.3,10.1,0,6.1,2.3
		l25.1,25.1C32.2,28.4,34.1,29.5,35.5,29.8z"/>
	<linearGradient id="SVGID_9_" gradientUnits="userSpaceOnUse" x1="-23.7661" y1="32.6503" x2="24.6632" y2="104.4497">
		<stop  offset="0.6257" style="stop-color:#008ECC"/>
		<stop  offset="0.6737" style="stop-color:#1698D5"/>
		<stop  offset="0.7732" style="stop-color:#3EAAE5"/>
		<stop  offset="0.8642" style="stop-color:#5BB7F1"/>
		<stop  offset="0.9428" style="stop-color:#6DBFF8"/>
		<stop  offset="1" style="stop-color:#73C2FB"/>
	</linearGradient>
	<path class="st8" d="M9.4,74.4l-4.3-0.8c-0.5,2.6-1.1,5.2-1.8,7.8l6.6-4.9C11.1,75.5,10.8,74.6,9.4,74.4z"/>
	<linearGradient id="SVGID_10_" gradientUnits="userSpaceOnUse" x1="3.5304" y1="14.2385" x2="51.9598" y2="86.038">
		<stop  offset="0.6257" style="stop-color:#008ECC"/>
		<stop  offset="0.6737" style="stop-color:#1698D5"/>
		<stop  offset="0.7732" style="stop-color:#3EAAE5"/>
		<stop  offset="0.8642" style="stop-color:#5BB7F1"/>
		<stop  offset="0.9428" style="stop-color:#6DBFF8"/>
		<stop  offset="1" style="stop-color:#73C2FB"/>
	</linearGradient>
	<path class="st9" d="M20.1,65.6c0.7,1.3,2.1,1.6,3.3,0.7l20.5-15.3c1.1-0.8,1.3-2.4,0.2-3.4L29.7,33.3c-1-1-3-2.1-4.4-2.4L4,26.3
		c1.1,4.4,1.9,9,2.4,13.6L20.1,65.6z"/>
</g>
</svg>
