<?xml version="1.0" encoding="utf-8"?>
<!-- Generator: Adobe Illustrator 24.1.1, SVG Export Plug-In . SVG Version: 6.00 Build 0)  -->
<svg version="1.1" id="Layer_1" xmlns="http://www.w3.org/2000/svg" xmlns:xlink="http://www.w3.org/1999/xlink" x="0px" y="0px"
	 viewBox="0 0 327.9 104.6" style="enable-background:new 0 0 327.9 104.6;" xml:space="preserve">
<style type="text/css">
	.st0{fill:#FFFFFF;}
</style>
<g>
	<g>
		<path class="st0" d="M47.1,79.9l7.4,13.8c5.9-3.6,11.6-7.4,17.2-11.4L48.5,78C47,77.8,46.4,78.7,47.1,79.9z"/>
		<path class="st0" d="M38.9,76.3c-0.3-0.1-1.4,0.6-2.6,1.4l-16.1,12c-1.6,12.2,8.5,19.1,22.1,11.1c2.6-1.4,5.2-2.9,7.7-4.4
			l-9.4-17.7C39.9,77.5,39.1,76.4,38.9,76.3z"/>
		<path class="st0" d="M84.8,41.7l-9.5,7c-1.1,0.8-1.3,2.4-0.2,3.4l16,15.9c10-7.4,11.3-17.5,4.8-25.9l-6.4-1.4
			C88,40.4,86,40.9,84.8,41.7z"/>
		<path class="st0" d="M70.9,55.2c-1-1-2.8-1.1-3.9-0.3L46.1,70.5c-1.1,0.8-0.9,1.8,0.5,2l30.9,5.7c3.2-2.3,6.3-4.7,9.4-7.1
			L70.9,55.2z"/>
		<path class="st0" d="M77.7,38.2l-18.5-4c-1.4-0.3-1.7,0.3-0.7,1.3l9.3,9.3c1,1,2.8,1.1,3.9,0.3l6.4-4.8
			C79.3,39.4,79.1,38.5,77.7,38.2z"/>
		<path class="st0" d="M41.3,25.5L21.8,6.1c-2.4,4-2.5,10,0.6,16.8l18.1,3.9C42,27.1,42.3,26.5,41.3,25.5z"/>
		<path class="st0" d="M35,68.3l-8.5-15.9c0,5.4-0.4,10.9-1.1,16.2l8.3,1.5C35.1,70.4,35.7,69.6,35,68.3z"/>
		<path class="st0" d="M54.9,29.9l26.2,5.7c1.4,0.3,3.5-0.1,4.6-1l0.9-0.7C72.4,23,58.1,13.1,42.3,4.4c-6.8-4-12.8-4.2-16.8-2
			l25.1,25.1C51.6,28.6,53.6,29.6,54.9,29.9z"/>
		<path class="st0" d="M28.9,74.5l-4.3-0.8c-0.5,2.6-1.1,5.2-1.8,7.8l6.6-4.9C30.5,75.7,30.3,74.8,28.9,74.5z"/>
		<path class="st0" d="M39.5,65.8c0.7,1.3,2.1,1.6,3.3,0.7l20.5-15.3c1.1-0.8,1.3-2.4,0.2-3.4L49.1,33.4c-1-1-3-2.1-4.4-2.4
			l-21.4-4.6c1.1,4.4,1.9,9,2.4,13.6L39.5,65.8z"/>
	</g>
	<g>
		<path class="st0" d="M172.9,30.8c3.3,1.5,5.8,3.6,7.6,6.3s2.7,5.9,2.7,9.6c0,3.7-0.9,6.9-2.7,9.6c-1.8,2.7-4.3,4.8-7.6,6.3
			c-3.3,1.5-7.1,2.2-11.5,2.2h-8.5v12.8H139v-49h22.4C165.7,28.6,169.6,29.3,172.9,30.8z M166.9,52c1.4-1.2,2.2-3,2.2-5.3
			s-0.7-4.1-2.2-5.3c-1.4-1.3-3.6-1.9-6.4-1.9h-7.7v14.3h7.7C163.3,53.8,165.5,53.2,166.9,52z"/>
		<path class="st0" d="M189.8,28.6h13.9v49h-13.9V28.6z"/>
		<path class="st0" d="M246.4,68.1h-20.7l-3.8,9.5h-14.1l21.6-49H243l21.7,49h-14.4L246.4,68.1z M242.3,57.8L236,42.2l-6.3,15.7
			h12.6V57.8z"/>
		<path class="st0" d="M282.4,39.3v10.8H304v10.7h-21.6v16.8h-13.9v-49H307v10.7H282.4z"/>
	</g>
</g>
</svg>
